<svg xmlns="http://www.w3.org/2000/svg" width="24" height="24" viewBox="0 0 24 24">
    <g fill="none" fill-rule="evenodd">
        <path d="M0 0h24v24H0z"/>
        <path fill="#1A1A1A" d="M21.41 8.22c-1.667 1.179-2.5 2.597-2.5 4.254 0 1.986 1.03 3.509 3.09 4.57-.553 1.6-1.354 2.993-2.402 4.178C18.549 22.407 17.592 23 16.726 23c-.408 0-.965-.135-1.67-.404l-.34-.13c-.69-.27-1.302-.404-1.834-.404-.502 0-1.052.105-1.649.316l-.426.153-.535.218c-.422.167-.848.251-1.277.251-1.012 0-2.13-.833-3.352-2.498C3.88 18.117 3 15.518 3 12.704c0-2 .55-3.61 1.649-4.832 1.1-1.222 2.555-1.833 4.368-1.833.677 0 1.31.124 1.9.371l.404.164.426.174c.378.16.684.24.917.24.298 0 .63-.069.993-.207l.557-.218.415-.153c.663-.24 1.394-.36 2.195-.36 1.9 0 3.429.724 4.586 2.17zM16.911 1c.022.255.033.45.033.589 0 1.258-.458 2.361-1.376 3.31-.917.95-1.983 1.424-3.199 1.424a5.474 5.474 0 0 1-.055-.611c0-1.069.426-2.072 1.278-3.01.852-.938 1.838-1.487 2.96-1.647.08-.015.2-.033.36-.055z"/>
    </g>
</svg>
