<svg xmlns="http://www.w3.org/2000/svg" width="24" height="24" viewBox="0 0 24 24">
    <g fill="none" fill-rule="evenodd">
        <path d="M0 0h24v24H0z"/>
        <g fill="#000" fill-rule="nonzero">
            <path d="M6.502 3.124c2.152 1.11 3.403 2.007 4.088 2.771-.35 1.407-2.182 1.471-2.851 1.432.137-.064.251-.14.292-.258-.168-.12-.764-.012-1.18-.246.16-.033.235-.065.31-.183-.394-.125-.817-.233-1.066-.441.134.002.26.03.435-.092-.352-.19-.727-.34-1.019-.63.182-.004.378-.001.435-.068a3.924 3.924 0 0 1-.819-.665c.255.031.363.005.424-.04-.243-.25-.552-.46-.698-.767.189.065.362.09.486-.006-.082-.186-.437-.296-.641-.733.199.02.41.044.452 0-.092-.376-.25-.588-.406-.807.426-.006 1.071.002 1.042-.034l-.263-.27c.416-.112.841.018 1.15.115.14-.11-.002-.248-.171-.39.353.048.673.129.962.241.154-.14-.1-.279-.224-.418.547.104.778.25 1.008.395.167-.16.01-.296-.103-.435.412.153.624.35.848.544.075-.102.192-.177.051-.424.293.169.513.367.676.59.18-.115.108-.273.109-.418.304.247.497.51.733.767.047-.034.089-.152.126-.338.725.704 1.75 2.476.263 3.179-1.264-1.044-2.775-1.802-4.45-2.371zM17.921 3.124c-2.152 1.11-3.403 2.007-4.089 2.771.351 1.407 2.183 1.471 2.852 1.432-.137-.064-.251-.14-.292-.258.168-.12.764-.012 1.18-.246-.16-.033-.235-.065-.31-.183.393-.125.817-.233 1.066-.441-.135.002-.26.03-.436-.092.352-.19.728-.34 1.02-.63-.182-.004-.379-.001-.436-.068.323-.2.594-.422.82-.665-.255.031-.363.005-.424-.04.243-.25.551-.46.698-.767-.189.065-.362.09-.487-.006.083-.186.438-.296.642-.733-.2.02-.41.044-.453 0 .093-.376.251-.588.407-.807-.426-.006-1.071.002-1.042-.034l.263-.27c-.416-.112-.842.018-1.15.115-.14-.11.002-.248.171-.39a4.182 4.182 0 0 0-.962.241c-.154-.14.1-.279.223-.418-.546.104-.778.25-1.008.395-.166-.16-.01-.296.103-.435-.411.153-.624.35-.847.544-.076-.102-.192-.177-.052-.424a2.149 2.149 0 0 0-.675.59c-.181-.115-.108-.273-.109-.418-.304.247-.497.51-.733.767-.048-.034-.09-.152-.126-.338-.725.704-1.75 2.476-.263 3.179 1.264-1.044 2.775-1.802 4.449-2.371zM14.818 17.45c0 1.313-1.154 2.377-2.578 2.377s-2.578-1.064-2.578-2.377c0-1.313 1.154-2.377 2.578-2.377s2.578 1.064 2.578 2.377zM10.153 10.363c1.204.426 1.773 1.922 1.27 3.343-.501 1.42-1.884 2.227-3.088 1.801-1.204-.426-1.773-1.922-1.271-3.343.502-1.42 1.885-2.227 3.09-1.801zM14.226 10.236c-1.204.426-1.773 1.922-1.27 3.343.501 1.42 1.884 2.227 3.088 1.801 1.204-.425 1.773-1.922 1.271-3.342-.502-1.42-1.885-2.227-3.089-1.802zM5.41 11.803c1.153-.309.389 4.771-.55 4.355-1.032-.83-1.364-3.262.55-4.355zM18.737 11.74c-1.154-.309-.39 4.771.549 4.354 1.032-.83 1.364-3.261-.55-4.354zM14.818 7.957c1.99-.336 3.647.847 3.58 3.005-.066.827-4.313-2.882-3.58-3.005zM9.32 7.894c-1.99-.336-3.646.846-3.58 3.004.066.828 4.313-2.881 3.58-3.004zM12.178 7.39c-1.187-.03-2.327.882-2.33 1.411-.003.643.939 1.302 2.339 1.318 1.429.01 2.34-.527 2.345-1.19.006-.752-1.3-1.55-2.354-1.539zM12.251 20.578c1.036-.045 2.425.333 2.428.836.017.488-1.26 1.59-2.497 1.569-1.28.055-2.536-1.05-2.52-1.432-.019-.56 1.56-.999 2.589-.973zM8.426 17.6c.737.888 1.073 2.449.458 2.909-.582.351-1.996.207-3-1.237-.678-1.211-.591-2.444-.115-2.806.711-.433 1.81.152 2.657 1.134zM15.929 17.318c-.798.935-1.242 2.64-.66 3.188.556.427 2.05.367 3.153-1.164.801-1.028.533-2.746.075-3.201-.68-.526-1.656.147-2.568 1.177z"/>
        </g>
    </g>
</svg>
